<svg id="logo" width="449" height="111" viewBox="0 0 449 111" fill="none" xmlns="http://www.w3.org/2000/svg">
<path d="M50.664 93.912V91.912H48.664H39.016C35.1516 91.912 32.9801 91.1592 31.9127 90.1721C30.8503 89.0925 30.072 87.0183 30.072 83.4V38.888H48.664H50.664V36.888V26.088V24.088H48.664H30.072V6.21598V4.21598H28.072H14.968H12.968V6.21598V24.088H4.74402H2.74402V26.088V36.888V38.888H4.74402H12.968V83.4C12.968 91.336 14.8463 97.527 19.0851 101.431C23.2437 105.261 29.2907 107 36.856 107H48.664H50.664V105V93.912Z"/>
<path d="M136.525 26.088V24.088H134.525H121.421H119.421V26.088V69.432C119.421 77.3836 117.48 83.1069 113.911 86.9314C110.327 90.7709 105.379 92.776 98.8131 92.776C92.4339 92.776 87.6259 90.8627 84.1407 87.2124C80.6597 83.4716 78.7811 78.0273 78.7811 70.584V26.088V24.088H76.7811H63.8211H61.8211V26.088V72.312C61.8211 79.8586 63.2612 86.3992 66.2426 91.848L66.2495 91.8607L66.2566 91.8732C69.3138 97.2741 73.4729 101.395 78.7254 104.176L78.739 104.183L78.7528 104.19C83.9619 106.845 89.7991 108.152 96.2211 108.152C101.88 108.152 107.086 106.988 111.804 104.629L111.811 104.625L111.819 104.621C114.734 103.133 117.272 101.295 119.421 99.1082V105V107H121.421H134.525H136.525V105V26.088Z"/>
<path d="M227.355 107H229.355V105V58.488C229.355 47.187 226.274 38.2468 219.823 32.0005C213.441 25.7248 205.135 22.648 195.099 22.648C189.44 22.648 184.192 23.8123 179.387 26.1636L179.38 26.1673L179.372 26.1711C176.474 27.6203 173.931 29.444 171.755 31.6393V26.088V24.088H169.755H156.651H154.651V26.088V105V107H156.651H169.755H171.755V105V61.368C171.755 53.4223 173.692 47.7016 177.257 43.8772C180.946 40.0204 185.908 38.024 192.363 38.024C198.733 38.024 203.538 39.9788 207.027 43.7234L207.035 43.7318L207.043 43.7401C210.508 47.3741 212.395 52.804 212.395 60.36V105V107H214.395H227.355Z"/>
<path d="M320.328 72.44H322.132L322.317 70.6458C322.612 67.8015 322.76 65.0924 322.76 62.52C322.76 55.0238 321.109 48.255 317.763 42.2654C314.51 36.174 309.825 31.3929 303.746 27.948C297.648 24.4922 290.675 22.792 282.888 22.792C274.909 22.792 267.749 24.5398 261.462 28.0871C255.259 31.5459 250.431 36.5362 246.994 43.0057C243.552 49.4848 241.864 56.9694 241.864 65.4C241.864 73.8405 243.604 81.3753 247.143 87.9482L247.149 87.9596C250.679 94.4144 255.545 99.4402 261.733 102.991L261.745 102.998C268.025 106.543 275.089 108.296 282.888 108.296C292.64 108.296 300.953 105.852 307.696 100.846L307.704 100.84L307.712 100.834C314.393 95.7726 318.872 89.2107 321.103 81.2005L321.809 78.664H319.176H305.064H303.642L303.175 80.007C301.778 84.0226 299.352 87.2303 295.859 89.6774C292.523 91.9856 288.244 93.208 282.888 93.208C276.44 93.208 271.02 91.2106 266.515 87.2424C262.604 83.6375 260.211 78.7576 259.445 72.44H320.328Z"/>
<path d="M302.201 48.0036L302.207 48.0138L302.213 48.0239C303.901 50.7391 304.902 53.9738 305.158 57.784H259.653C260.567 51.7617 262.937 47.1167 266.664 43.6973C270.98 39.8242 276.159 37.88 282.312 37.88C286.633 37.88 290.492 38.7779 293.927 40.5396L293.954 40.5535L293.982 40.5666C297.467 42.222 300.195 44.6894 302.201 48.0036Z"/>
<path d="M353.161 4.63199V2.63199H351.161H338.057H336.057V4.63199V105V107H338.057H351.161H353.161V105V4.63199Z"/>
<path d="M444.198 107H446.198V105V58.488C446.198 47.1876 443.118 38.2478 436.668 32.0015C430.286 25.7251 421.979 22.648 411.942 22.648C406.283 22.648 401.036 23.8123 396.231 26.1636L396.224 26.1673L396.216 26.1711C393.318 27.6203 390.775 29.444 388.598 31.6393V26.088V24.088H386.598H373.494H371.494V26.088V105V107H373.494H386.598H388.598V105V61.368C388.598 53.4227 390.536 47.7021 394.1 43.8777C397.79 40.0206 402.752 38.024 409.206 38.024C415.576 38.024 420.382 39.9788 423.871 43.7234L423.879 43.7318L423.887 43.7401C427.352 47.3741 429.238 52.804 429.238 60.36V105V107H431.238H444.198Z"/>
</svg>