<svg class="logo-small" width="276" height="58" viewBox="0 0 276 58" fill="none" xmlns="http://www.w3.org/2000/svg">
    <path d="M47.016 5.81599L28.08 56H20.52L1.58398 5.81599H8.56798L24.336 49.088L40.104 5.81599H47.016Z" stroke="white"/>
    <path d="M57.5842 10.136C56.3362 10.136 55.2802 9.70399 54.4162 8.83999C53.5522 7.97599 53.1202 6.91999 53.1202 5.67199C53.1202 4.42399 53.5522 3.36799 54.4162 2.50399C55.2802 1.63999 56.3362 1.20799 57.5842 1.20799C58.7842 1.20799 59.7922 1.63999 60.6082 2.50399C61.4722 3.36799 61.9042 4.42399 61.9042 5.67199C61.9042 6.91999 61.4722 7.97599 60.6082 8.83999C59.7922 9.70399 58.7842 10.136 57.5842 10.136ZM60.7522 16.544V56H54.2002V16.544H60.7522Z" stroke="white"/>
    <path d="M78.471 23.888C79.815 21.536 81.783 19.616 84.375 18.128C86.967 16.64 89.919 15.896 93.231 15.896C96.783 15.896 99.975 16.736 102.807 18.416C105.639 20.096 107.871 22.472 109.503 25.544C111.135 28.568 111.951 32.096 111.951 36.128C111.951 40.112 111.135 43.664 109.503 46.784C107.871 49.904 105.615 52.328 102.735 54.056C99.903 55.784 96.735 56.648 93.231 56.648C89.823 56.648 86.823 55.904 84.231 54.416C81.687 52.928 79.767 51.032 78.471 48.728V56H71.919V2.72H78.471V23.888ZM105.255 36.128C105.255 33.152 104.655 30.56 103.455 28.352C102.255 26.144 100.623 24.464 98.559 23.312C96.543 22.16 94.311 21.584 91.863 21.584C89.463 21.584 87.231 22.184 85.167 23.384C83.151 24.536 81.519 26.24 80.271 28.496C79.071 30.704 78.471 33.272 78.471 36.2C78.471 39.176 79.071 41.792 80.271 44.048C81.519 46.256 83.151 47.96 85.167 49.16C87.231 50.312 89.463 50.888 91.863 50.888C94.311 50.888 96.543 50.312 98.559 49.16C100.623 47.96 102.255 46.256 103.455 44.048C104.655 41.792 105.255 39.152 105.255 36.128Z" stroke="white"/>
    <path d="M156.575 34.76C156.575 36.008 156.503 37.328 156.359 38.72H124.823C125.063 42.608 126.383 45.656 128.783 47.864C131.231 50.024 134.183 51.104 137.639 51.104C140.471 51.104 142.823 50.456 144.695 49.16C146.615 47.816 147.959 46.04 148.727 43.832H155.783C154.727 47.624 152.615 50.72 149.447 53.12C146.279 55.472 142.343 56.648 137.639 56.648C133.895 56.648 130.535 55.808 127.559 54.128C124.631 52.448 122.327 50.072 120.647 47C118.967 43.88 118.127 40.28 118.127 36.2C118.127 32.12 118.943 28.544 120.575 25.472C122.207 22.4 124.487 20.048 127.415 18.416C130.391 16.736 133.799 15.896 137.639 15.896C141.383 15.896 144.695 16.712 147.575 18.344C150.455 19.976 152.663 22.232 154.199 25.112C155.783 27.944 156.575 31.16 156.575 34.76ZM149.807 33.392C149.807 30.896 149.255 28.76 148.151 26.984C147.047 25.16 145.535 23.792 143.615 22.88C141.743 21.92 139.655 21.44 137.351 21.44C134.039 21.44 131.207 22.496 128.855 24.608C126.551 26.72 125.231 29.648 124.895 33.392H149.807Z" stroke="white"/>
    <path d="M179.192 56.648C176.168 56.648 173.456 56.144 171.056 55.136C168.656 54.08 166.76 52.64 165.368 50.816C163.976 48.944 163.208 46.808 163.064 44.408H169.832C170.024 46.376 170.936 47.984 172.568 49.232C174.248 50.48 176.432 51.104 179.12 51.104C181.616 51.104 183.584 50.552 185.024 49.448C186.464 48.344 187.184 46.952 187.184 45.272C187.184 43.544 186.416 42.272 184.88 41.456C183.344 40.592 180.968 39.752 177.752 38.936C174.824 38.168 172.424 37.4 170.552 36.632C168.728 35.816 167.144 34.64 165.8 33.104C164.504 31.52 163.856 29.456 163.856 26.912C163.856 24.896 164.456 23.048 165.656 21.368C166.856 19.688 168.56 18.368 170.768 17.408C172.976 16.4 175.496 15.896 178.328 15.896C182.696 15.896 186.224 17 188.912 19.208C191.6 21.416 193.04 24.44 193.232 28.28H186.68C186.536 26.216 185.696 24.56 184.16 23.312C182.672 22.064 180.656 21.44 178.112 21.44C175.76 21.44 173.888 21.944 172.496 22.952C171.104 23.96 170.408 25.28 170.408 26.912C170.408 28.208 170.816 29.288 171.632 30.152C172.496 30.968 173.552 31.64 174.8 32.168C176.096 32.648 177.872 33.2 180.128 33.824C182.96 34.592 185.264 35.36 187.04 36.128C188.816 36.848 190.328 37.952 191.576 39.44C192.872 40.928 193.544 42.872 193.592 45.272C193.592 47.432 192.992 49.376 191.792 51.104C190.592 52.832 188.888 54.2 186.68 55.208C184.52 56.168 182.024 56.648 179.192 56.648Z" stroke="white"/>
    <path d="M228.588 5.81599V56H222.036V5.81599H228.588Z" stroke="white"/>
    <path d="M258.979 15.824C263.779 15.824 267.667 17.288 270.643 20.216C273.619 23.096 275.107 27.272 275.107 32.744V56H268.627V33.68C268.627 29.744 267.643 26.744 265.675 24.68C263.707 22.568 261.019 21.512 257.611 21.512C254.155 21.512 251.395 22.592 249.331 24.752C247.315 26.912 246.307 30.056 246.307 34.184V56H239.755V16.544H246.307V22.16C247.603 20.144 249.355 18.584 251.563 17.48C253.819 16.376 256.291 15.824 258.979 15.824Z" stroke="white"/>
</svg>
