<svg width="892" height="188" viewBox="0 0 892 188" fill="none" xmlns="http://www.w3.org/2000/svg">
    <path d="M152.496 19.296L91.48 181H67.12L6.104 19.296H28.608L79.416 158.728L130.224 19.296H152.496Z" stroke="white" stroke-width="8" mask="url(#path-1-outside-1)"/>
    <path d="M186.549 33.216C182.528 33.216 179.125 31.824 176.341 29.04C173.557 26.256 172.165 22.8533 172.165 18.832C172.165 14.8107 173.557 11.408 176.341 8.624C179.125 5.84 182.528 4.448 186.549 4.448C190.416 4.448 193.664 5.84 196.293 8.624C199.077 11.408 200.469 14.8107 200.469 18.832C200.469 22.8533 199.077 26.256 196.293 29.04C193.664 31.824 190.416 33.216 186.549 33.216ZM196.757 53.864V181H175.645V53.864H196.757Z" stroke="white" stroke-width="8" mask="url(#path-1-outside-1)"/>
    <path d="M253.851 77.528C258.182 69.9493 264.523 63.7627 272.875 58.968C281.227 54.1733 290.739 51.776 301.411 51.776C312.856 51.776 323.142 54.4827 332.267 59.896C341.392 65.3093 348.584 72.9653 353.843 82.864C359.102 92.608 361.731 103.976 361.731 116.968C361.731 129.805 359.102 141.251 353.843 151.304C348.584 161.357 341.315 169.168 332.035 174.736C322.91 180.304 312.702 183.088 301.411 183.088C290.43 183.088 280.763 180.691 272.411 175.896C264.214 171.101 258.027 164.992 253.851 157.568V181H232.739V9.32001H253.851V77.528ZM340.155 116.968C340.155 107.379 338.222 99.0267 334.355 91.912C330.488 84.7973 325.23 79.384 318.579 75.672C312.083 71.96 304.891 70.104 297.003 70.104C289.27 70.104 282.078 72.0373 275.427 75.904C268.931 79.616 263.672 85.1067 259.651 92.376C255.784 99.4907 253.851 107.765 253.851 117.2C253.851 126.789 255.784 135.219 259.651 142.488C263.672 149.603 268.931 155.093 275.427 158.96C282.078 162.672 289.27 164.528 297.003 164.528C304.891 164.528 312.083 162.672 318.579 158.96C325.23 155.093 330.488 149.603 334.355 142.488C338.222 135.219 340.155 126.712 340.155 116.968Z" stroke="white" stroke-width="8" mask="url(#path-1-outside-1)"/>
    <path d="M505.52 112.56C505.52 116.581 505.288 120.835 504.824 125.32H403.208C403.982 137.848 408.235 147.669 415.968 154.784C423.856 161.744 433.368 165.224 444.504 165.224C453.63 165.224 461.208 163.136 467.24 158.96C473.427 154.629 477.758 148.907 480.232 141.792H502.968C499.566 154.011 492.76 163.987 482.552 171.72C472.344 179.299 459.662 183.088 444.504 183.088C432.44 183.088 421.614 180.381 412.024 174.968C402.59 169.555 395.166 161.899 389.752 152C384.339 141.947 381.632 130.347 381.632 117.2C381.632 104.053 384.262 92.5307 389.52 82.632C394.779 72.7333 402.126 65.1547 411.56 59.896C421.15 54.4827 432.131 51.776 444.504 51.776C456.568 51.776 467.24 54.4053 476.52 59.664C485.8 64.9227 492.915 72.192 497.864 81.472C502.968 90.5973 505.52 100.96 505.52 112.56ZM483.712 108.152C483.712 100.109 481.934 93.2267 478.376 87.504C474.819 81.6267 469.947 77.2187 463.76 74.28C457.728 71.1867 451 69.64 443.576 69.64C432.904 69.64 423.779 73.0427 416.2 79.848C408.776 86.6533 404.523 96.088 403.44 108.152H483.712Z" stroke="white" stroke-width="8" mask="url(#path-1-outside-1)"/>
    <path d="M578.395 183.088C568.651 183.088 559.913 181.464 552.179 178.216C544.446 174.813 538.337 170.173 533.851 164.296C529.366 158.264 526.891 151.381 526.427 143.648H548.235C548.854 149.989 551.793 155.171 557.051 159.192C562.465 163.213 569.502 165.224 578.163 165.224C586.206 165.224 592.547 163.445 597.187 159.888C601.827 156.331 604.147 151.845 604.147 146.432C604.147 140.864 601.673 136.765 596.723 134.136C591.774 131.352 584.118 128.645 573.755 126.016C564.321 123.541 556.587 121.067 550.555 118.592C544.678 115.963 539.574 112.173 535.243 107.224C531.067 102.12 528.979 95.4693 528.979 87.272C528.979 80.776 530.913 74.8213 534.779 69.408C538.646 63.9947 544.137 59.7413 551.251 56.648C558.366 53.4 566.486 51.776 575.611 51.776C589.686 51.776 601.054 55.3333 609.715 62.448C618.377 69.5627 623.017 79.3067 623.635 91.68H602.523C602.059 85.0293 599.353 79.6933 594.403 75.672C589.609 71.6507 583.113 69.64 574.915 69.64C567.337 69.64 561.305 71.264 556.819 74.512C552.334 77.76 550.091 82.0133 550.091 87.272C550.091 91.448 551.406 94.928 554.035 97.712C556.819 100.341 560.222 102.507 564.243 104.208C568.419 105.755 574.142 107.533 581.411 109.544C590.537 112.019 597.961 114.493 603.683 116.968C609.406 119.288 614.278 122.845 618.299 127.64C622.475 132.435 624.641 138.699 624.795 146.432C624.795 153.392 622.862 159.656 618.995 165.224C615.129 170.792 609.638 175.2 602.523 178.448C595.563 181.541 587.521 183.088 578.395 183.088Z" stroke="white" stroke-width="8" mask="url(#path-1-outside-1)"/>
    <path d="M737.562 19.296V181H716.45V19.296H737.562Z" stroke="white" stroke-width="8" mask="url(#path-1-outside-1)"/>
    <path d="M835.488 51.544C850.954 51.544 863.482 56.2613 873.072 65.696C882.661 74.976 887.456 88.432 887.456 106.064V181H866.576V109.08C866.576 96.3973 863.405 86.7307 857.064 80.08C850.722 73.2747 842.061 69.872 831.08 69.872C819.944 69.872 811.05 73.352 804.4 80.312C797.904 87.272 794.656 97.4027 794.656 110.704V181H773.544V53.864H794.656V71.96C798.832 65.464 804.477 60.4373 811.592 56.88C818.861 53.3227 826.826 51.544 835.488 51.544Z" stroke="white" stroke-width="8" mask="url(#path-1-outside-1)"/>
</svg>
