<svg class="logo-medium" width="537" height="114" viewBox="0 0 537 114" fill="none" xmlns="http://www.w3.org/2000/svg">
    <path d="M92.709 11.896L56.152 108.779H41.557L5 11.896H18.483L48.924 95.435L79.365 11.896H92.709Z" stroke="#ffffffc2" stroke-width="4"/>
    <path d="M113.112 20.236C110.702 20.236 108.664 19.402 106.996 17.734C105.328 16.066 104.494 14.0273 104.494 11.618C104.494 9.20867 105.328 7.17 106.996 5.502C108.664 3.834 110.702 3 113.112 3C115.428 3 117.374 3.834 118.95 5.502C120.618 7.17 121.452 9.20867 121.452 11.618C121.452 14.0273 120.618 16.066 118.95 17.734C117.374 19.402 115.428 20.236 113.112 20.236ZM119.228 32.607V108.779H106.579V32.607H119.228Z" stroke="#ffffffc2" stroke-width="4"/>
    <path d="M153.435 46.785C156.029 42.2443 159.829 38.5377 164.833 35.665C169.837 32.7923 175.536 31.356 181.93 31.356C188.787 31.356 194.949 32.9777 200.417 36.221C205.884 39.4643 210.193 44.0513 213.344 49.982C216.494 55.82 218.07 62.631 218.07 70.415C218.07 78.1063 216.494 84.9637 213.344 90.987C210.193 97.0103 205.838 101.69 200.278 105.026C194.81 108.362 188.694 110.03 181.93 110.03C175.35 110.03 169.559 108.594 164.555 105.721C159.643 102.848 155.937 99.188 153.435 94.74V108.779H140.786V5.91901H153.435V46.785ZM205.143 70.415C205.143 64.6697 203.984 59.6657 201.668 55.403C199.351 51.1403 196.2 47.897 192.216 45.673C188.324 43.449 184.015 42.337 179.289 42.337C174.655 42.337 170.346 43.4953 166.362 45.812C162.47 48.036 159.319 51.3257 156.91 55.681C154.593 59.9437 153.435 64.9013 153.435 70.554C153.435 76.2993 154.593 81.3497 156.91 85.705C159.319 89.9677 162.47 93.2573 166.362 95.574C170.346 97.798 174.655 98.91 179.289 98.91C184.015 98.91 188.324 97.798 192.216 95.574C196.2 93.2573 199.351 89.9677 201.668 85.705C203.984 81.3497 205.143 76.253 205.143 70.415Z" stroke="#ffffffc2" stroke-width="4"/>
    <path d="M304.219 67.774C304.219 70.1833 304.08 72.7317 303.802 75.419H242.92C243.384 82.925 245.932 88.8093 250.565 93.072C255.291 97.242 260.99 99.327 267.662 99.327C273.13 99.327 277.67 98.076 281.284 95.574C284.991 92.9793 287.586 89.5507 289.068 85.288H302.69C300.652 92.6087 296.574 98.5857 290.458 103.219C284.342 107.76 276.744 110.03 267.662 110.03C260.434 110.03 253.948 108.408 248.202 105.165C242.55 101.922 238.102 97.3347 234.858 91.404C231.615 85.3807 229.993 78.4307 229.993 70.554C229.993 62.6773 231.569 55.7737 234.719 49.843C237.87 43.9123 242.272 39.3717 247.924 36.221C253.67 32.9777 260.249 31.356 267.662 31.356C274.89 31.356 281.284 32.9313 286.844 36.082C292.404 39.2327 296.667 43.588 299.632 49.148C302.69 54.6153 304.219 60.824 304.219 67.774ZM291.153 65.133C291.153 60.3143 290.088 56.1907 287.956 52.762C285.825 49.2407 282.906 46.5997 279.199 44.839C275.585 42.9857 271.554 42.059 267.106 42.059C260.712 42.059 255.245 44.0977 250.704 48.175C246.256 52.2523 243.708 57.905 243.059 65.133H291.153Z" stroke="#ffffffc2" stroke-width="4"/>
    <path d="M347.882 110.03C342.043 110.03 336.808 109.057 332.174 107.111C327.541 105.072 323.881 102.292 321.193 98.771C318.506 95.157 317.023 91.0333 316.745 86.4H329.811C330.182 90.1993 331.943 93.3037 335.094 95.713C338.337 98.1223 342.553 99.327 347.742 99.327C352.561 99.327 356.361 98.2613 359.141 96.13C361.921 93.9987 363.31 91.3113 363.31 88.068C363.31 84.732 361.828 82.2763 358.862 80.701C355.897 79.033 351.31 77.4113 345.102 75.836C339.449 74.3533 334.816 72.8707 331.202 71.388C327.68 69.8127 324.622 67.5423 322.027 64.577C319.525 61.519 318.275 57.5343 318.275 52.623C318.275 48.731 319.433 45.1633 321.749 41.92C324.066 38.6767 327.356 36.1283 331.618 34.275C335.881 32.329 340.746 31.356 346.214 31.356C354.646 31.356 361.457 33.4873 366.646 37.75C371.836 42.0127 374.616 47.8507 374.987 55.264H362.337C362.059 51.2793 360.438 48.0823 357.473 45.673C354.6 43.2637 350.708 42.059 345.797 42.059C341.256 42.059 337.642 43.032 334.954 44.978C332.267 46.924 330.923 49.4723 330.923 52.623C330.923 55.125 331.711 57.21 333.286 58.878C334.954 60.4533 336.993 61.7507 339.402 62.77C341.904 63.6967 345.333 64.7623 349.689 65.967C355.156 67.4497 359.604 68.9323 363.033 70.415C366.461 71.805 369.38 73.9363 371.789 76.809C374.291 79.6817 375.589 83.4347 375.681 88.068C375.681 92.238 374.523 95.991 372.206 99.327C369.89 102.663 366.6 105.304 362.337 107.25C358.167 109.103 353.349 110.03 347.882 110.03Z" stroke="#ffffffc2" stroke-width="4"/>
    <path d="M443.244 11.896V108.779H430.595V11.896H443.244Z" stroke="#ffffffc2" stroke-width="4"/>
    <path d="M501.915 31.217C511.182 31.217 518.688 34.0433 524.433 39.696C530.179 45.256 533.051 53.318 533.051 63.882V108.779H520.541V65.689C520.541 58.0903 518.642 52.2987 514.842 48.314C511.043 44.2367 505.854 42.198 499.274 42.198C492.602 42.198 487.274 44.283 483.289 48.453C479.397 52.623 477.451 58.6927 477.451 66.662V108.779H464.802V32.607H477.451V43.449C479.953 39.557 483.336 36.5453 487.598 34.414C491.954 32.2827 496.726 31.217 501.915 31.217Z" stroke="#ffffffc2" stroke-width="4"/>
</svg>
