<svg id="logo" width="285" height="81" viewBox="0 0 285 81" fill="none" xmlns="http://www.w3.org/2000/svg">
<path d="M19.5342 7.32471V6.32471H18.5342H12.3818H11.3818V7.32471V20.5264H2.1792H1.1792V21.5264V26.5508V27.5508H2.1792H11.3818V63.5674C11.3818 68.4302 12.3579 72.2919 14.4636 74.9992L14.4678 75.0045C16.634 77.751 20.0376 79.0254 24.4302 79.0254C27.2519 79.0254 29.5708 78.7315 31.3328 78.0942L32.0291 77.8423L31.9914 77.1029L31.735 72.0784L31.6789 70.9776L30.5887 71.1404C28.3023 71.4816 26.7083 71.6421 25.7632 71.6421C23.3558 71.6421 21.8533 70.953 20.9793 69.7922C20.0702 68.5382 19.5342 66.5021 19.5342 63.5161V27.5508H30.0186H31.0186V26.5508V21.5264V20.5264H30.0186H19.5342V7.32471Z"/>
<path d="M46.4985 73.5637L46.5018 73.5674C49.8185 77.2527 54.6187 79.0254 60.729 79.0254C67.9013 79.0254 73.5271 76.9703 77.4576 72.7661L77.5196 77.0146L77.534 78H78.5195H84.4668H85.4668V77V21.5264V20.5264H84.4668H78.3145H77.3145V21.5264V61.5119C76.1893 64.9268 74.3363 67.4311 71.7817 69.1005C69.1779 70.8021 65.7574 71.6934 61.4468 71.6934C57.3911 71.6934 54.5098 70.4506 52.6112 68.1038C50.6797 65.7165 49.6294 62.023 49.6294 56.8511V21.5264V20.5264H48.6294H42.5283H41.5283V21.5264L41.5283 57.6201L41.5284 57.6303C41.5981 64.4973 43.2017 69.864 46.4985 73.5637Z"/>
<path d="M107.307 21.5048L107.286 20.5264H106.308H100.463H99.4629V21.5264V77V78H100.463H106.564H107.564V77V39.1796C108.914 35.3724 110.95 32.3933 113.654 30.1983L113.655 30.1974C116.416 27.9502 119.56 26.833 123.124 26.833C127.507 26.833 130.465 28.0006 132.255 30.1186L132.261 30.1248C134.126 32.2957 135.164 35.709 135.198 40.5499V77V78H136.198H142.299H143.299V77L143.299 40.5986L143.299 40.5935C143.264 33.773 141.77 28.4728 138.645 24.8702C135.491 21.2334 130.744 19.501 124.611 19.501C120.684 19.501 117.075 20.4489 113.806 22.3521C111.38 23.7391 109.261 25.5956 107.446 27.9075L107.307 21.5048Z"/>
<path d="M166.335 75.3918L166.338 75.3939C170.331 77.8182 174.785 79.0254 179.674 79.0254C188.55 79.0254 195.418 75.6248 200.133 68.8014L200.677 68.0151L199.916 67.4367L196.07 64.5144L195.284 63.9166L194.677 64.6959C192.704 67.2279 190.531 69.031 188.168 70.1487L188.163 70.151C185.826 71.2717 183.09 71.8472 179.931 71.8472C174.756 71.8472 170.485 69.8913 167.051 65.9396C163.639 61.9419 161.91 56.9367 161.91 50.8525V50.6733H200.49H201.49V49.6733V46.2383C201.49 38.1128 199.466 31.5835 195.302 26.7713C191.159 21.9093 185.535 19.501 178.546 19.501C174.037 19.501 169.847 20.7928 165.997 23.3587C162.146 25.8914 159.143 29.3827 156.986 33.8026L156.983 33.8085C154.86 38.232 153.809 43.185 153.809 48.6479V50.8525C153.809 56.1546 154.898 60.9778 157.096 65.3022L157.097 65.3051C159.296 69.5968 162.377 72.9672 166.335 75.3918Z"/>
<path d="M221.562 78H222.562V77V2.35156V1.35156H221.562H215.255H214.255V2.35156V77V78H215.255H221.562Z"/>
<path d="M247.273 21.5048L247.252 20.5264H246.273H240.429H239.429V21.5264V77V78H240.429H246.53H247.53V77V39.1797C248.879 35.3724 250.916 32.3933 253.62 30.1983L253.621 30.1974C256.382 27.9502 259.526 26.833 263.09 26.833C267.473 26.833 270.431 28.0006 272.221 30.1186L272.226 30.1248C274.091 32.2957 275.13 35.709 275.164 40.5499C275.164 40.5513 275.164 40.5528 275.164 40.5543L275.164 77V78H276.164H282.265H283.265V77V40.5986V40.5935C283.23 33.773 281.736 28.4728 278.611 24.8702C275.457 21.2334 270.709 19.501 264.577 19.501C260.65 19.501 257.041 20.4489 253.772 22.3521C251.346 23.7391 249.226 25.5956 247.412 27.9075L247.273 21.5048Z"/>
<path d="M162.26 43.4438C163.03 38.4284 164.823 34.4654 167.587 31.4893C170.578 28.3063 174.211 26.7305 178.546 26.7305C182.921 26.7305 186.397 28.2909 189.066 31.4057C191.696 34.4737 193.154 38.4611 193.375 43.4438H162.26Z"/>
</svg>

